<?xml version="1.0" encoding="UTF-8" standalone="no"?>
<svg
   xmlns:dc="http://purl.org/dc/elements/1.1/"
   xmlns:cc="http://creativecommons.org/ns#"
   xmlns:rdf="http://www.w3.org/1999/02/22-rdf-syntax-ns#"
   xmlns:svg="http://www.w3.org/2000/svg"
   xmlns="http://www.w3.org/2000/svg"
   xmlns:sodipodi="http://sodipodi.sourceforge.net/DTD/sodipodi-0.dtd"
   xmlns:inkscape="http://www.inkscape.org/namespaces/inkscape"
   width="58"
   height="58"
   version="1.1"
   id="svg118"
   sodipodi:docname="move_z.svg"
   inkscape:version="0.92.5 (2060ec1f9f, 2020-04-08)"
   inkscape:export-filename="/home/nath/projets/acroyoga/icons/png/move_z.png"
   inkscape:export-xdpi="299.45535"
   inkscape:export-ydpi="299.45535">
  <metadata
     id="metadata124">
    <rdf:RDF>
      <cc:Work
         rdf:about="">
        <dc:format>image/svg+xml</dc:format>
        <dc:type
           rdf:resource="http://purl.org/dc/dcmitype/StillImage" />
        <dc:title></dc:title>
      </cc:Work>
    </rdf:RDF>
  </metadata>
  <defs
     id="defs122" />
  <sodipodi:namedview
     pagecolor="#ffffff"
     bordercolor="#666666"
     borderopacity="1"
     objecttolerance="10"
     gridtolerance="10"
     guidetolerance="10"
     inkscape:pageopacity="0"
     inkscape:pageshadow="2"
     inkscape:window-width="1920"
     inkscape:window-height="1015"
     id="namedview120"
     showgrid="false"
     fit-margin-top="0"
     fit-margin-left="0"
     fit-margin-right="0"
     fit-margin-bottom="0"
     inkscape:zoom="5.2891585"
     inkscape:cx="23.092936"
     inkscape:cy="24.873732"
     inkscape:window-x="0"
     inkscape:window-y="0"
     inkscape:window-maximized="1"
     inkscape:current-layer="svg118" />
  <g
     id="g1482"
     transform="translate(1.381514,12.818558)">
    <g
       transform="translate(0,-20.657356)"
       id="g1074">
      <path
         style="fill:none;stroke:#ff0000;stroke-width:1;stroke-linecap:round;stroke-miterlimit:4;stroke-dasharray:none;stroke-opacity:1"
         d="m 27.865406,58.385212 0.08267,-0.01901 0.06288,-0.02381 0.0393,-0.0272 0.01337,-0.02893"
         id="path46"
         inkscape:connector-curvature="0" />
      <path
         style="fill:none;stroke:#ff0000;stroke-width:1;stroke-linecap:round;stroke-miterlimit:4;stroke-dasharray:none;stroke-opacity:1"
         d="m 27.173345,58.286224 0.01611,0.03169 0.04716,0.02942 0.0748,0.02502 0.09703,0.01874 0.112228,0.01117 0.119308,0.0028 0.117753,-0.0058 0.107674,-0.01402"
         id="path48"
         inkscape:connector-curvature="0" />
      <path
         style="fill:none;stroke:#ff0000;stroke-width:0.66771138;stroke-linecap:round;stroke-opacity:1"
         d="m 26.136967,57.692296 0.496492,-0.06957 0.539886,-0.04033"
         id="path50"
         inkscape:connector-curvature="0" />
      <path
         style="fill:none;stroke:#ff0000;stroke-width:0.66771138;stroke-linecap:round;stroke-opacity:1"
         d="m 28.063627,57.582395 0.487632,0.03494 0.454301,0.05887 0.404737,0.08066 0.179178,0.04763 0.161532,0.05194 0.142438,0.05579 0.12207,0.05914 0.100609,0.06196 0.07825,0.06423 0.05518,0.06591 0.03163,0.06701 0.0078,0.06751 -0.01612,0.0674"
         id="path52"
         inkscape:connector-curvature="0" />
      <path
         style="fill:none;stroke:#ff0000;stroke-width:0.66771138;stroke-linecap:round;stroke-opacity:1"
         d="m 30.272845,58.365414 -0.03803,0.0643 -0.05979,0.0631 -0.08105,0.06138 -0.101639,0.05916 -0.121381,0.05644 -0.140113,0.05325 -0.331618,0.09518 -0.390734,0.07752 -0.436877,0.05729 -0.468519,0.03517 -0.484604,0.01184 -0.484606,-0.01184 -0.468518,-0.03517 -0.436877,-0.05729 -0.390734,-0.07752 -0.331618,-0.09518 -0.140114,-0.05325 -0.121381,-0.05644 -0.101638,-0.05916 -0.08105,-0.06139 -0.05979,-0.0631 -0.03803,-0.0643"
         id="path54"
         inkscape:connector-curvature="0" />
      <path
         style="fill:none;stroke:#ff0000;stroke-width:0.66771138;stroke-linecap:round;stroke-opacity:1"
         d="m 24.964127,58.365414 -0.01404,-0.04865 -0.0016,-0.04879 0.01091,-0.04871 0.02333,-0.0484 0.03565,-0.04786 0.0478,-0.0471 0.131096,-0.09102 0.176301,-0.0854 0.218214,-0.07817 0.256051,-0.0695 0.28911,-0.05952"
         id="path56"
         inkscape:connector-curvature="0" />
      <path
         style="fill:none;stroke:#ff0000;stroke-width:1;stroke-linecap:round;stroke-miterlimit:4;stroke-dasharray:none;stroke-opacity:1"
         d="m 27.173345,49.786567 v 8.499657"
         id="path90"
         inkscape:connector-curvature="0" />
      <path
         style="fill:none;stroke:#ff0000;stroke-width:1;stroke-linecap:round;stroke-miterlimit:4;stroke-dasharray:none;stroke-opacity:1"
         d="m 28.063627,49.627941 v 8.658283"
         id="path92"
         inkscape:connector-curvature="0" />
      <path
         style="fill:none;stroke:#ff0000;stroke-width:0.66771138;stroke-linecap:round;stroke-opacity:1"
         d="M 27.618486,64.720452 24.964127,58.365414"
         id="path102"
         inkscape:connector-curvature="0" />
      <path
         style="fill:none;stroke:#ff0000;stroke-width:0.66771138;stroke-linecap:round;stroke-opacity:1"
         d="m 27.618486,64.720452 2.654359,-6.355038"
         id="path104"
         inkscape:connector-curvature="0" />
    </g>
    <path
       inkscape:connector-curvature="0"
       id="path1094"
       d="m 18.358995,4.9627877 11.111389,-1.97976 7.407593,2.969641 V 27.400096 l -11.111389,1.979762 -7.407593,-2.969643 z"
       style="fill:#c37dd7;fill-opacity:1;stroke:none;stroke-width:1;stroke-linecap:butt;stroke-linejoin:miter;stroke-miterlimit:4;stroke-dasharray:none;stroke-opacity:1" />
    <path
       inkscape:connector-curvature="0"
       id="path16"
       d="M 36.877977,27.400096 V 5.9526687"
       style="fill:none;stroke:#000000;stroke-width:1;stroke-linecap:round;stroke-miterlimit:4;stroke-dasharray:none" />
    <path
       inkscape:connector-curvature="0"
       id="path18"
       d="m 29.470384,2.9830257 7.407593,2.969643"
       style="fill:none;stroke:#000000;stroke-width:1;stroke-linecap:round;stroke-miterlimit:4;stroke-dasharray:none" />
    <path
       inkscape:connector-curvature="0"
       id="path20"
       d="m 18.358995,26.410215 7.407593,2.969643"
       style="fill:none;stroke:#000000;stroke-width:1;stroke-linecap:round;stroke-miterlimit:4;stroke-dasharray:none" />
    <path
       inkscape:connector-curvature="0"
       id="path22"
       d="M 25.766588,29.379858 36.877977,27.400096"
       style="fill:none;stroke:#000000;stroke-width:1;stroke-linecap:round;stroke-miterlimit:4;stroke-dasharray:none" />
    <path
       inkscape:connector-curvature="0"
       id="path24"
       d="M 25.766588,29.379858 V 7.9324317"
       style="fill:none;stroke:#000000;stroke-width:1;stroke-linecap:round;stroke-miterlimit:4;stroke-dasharray:none" />
    <path
       inkscape:connector-curvature="0"
       id="path26"
       d="M 25.766588,7.9324317 36.877977,5.9526687"
       style="fill:none;stroke:#000000;stroke-width:1;stroke-linecap:round;stroke-miterlimit:4;stroke-dasharray:none" />
    <path
       inkscape:connector-curvature="0"
       id="path28"
       d="m 18.358995,26.410215 v -8.12682"
       style="fill:none;stroke:#000000;stroke-width:1;stroke-linecap:round;stroke-miterlimit:4;stroke-dasharray:none" />
    <path
       sodipodi:nodetypes="cc"
       inkscape:connector-curvature="0"
       id="path30"
       d="M 18.358995,21.254946 V 4.9627877"
       style="fill:none;stroke:#000000;stroke-width:1;stroke-linecap:round;stroke-miterlimit:4;stroke-dasharray:none" />
    <path
       inkscape:connector-curvature="0"
       id="path32"
       d="m 18.358995,4.9627877 8.81435,-1.570489"
       style="fill:none;stroke:#000000;stroke-width:1;stroke-linecap:round;stroke-miterlimit:4;stroke-dasharray:none" />
    <path
       inkscape:connector-curvature="0"
       id="path34"
       d="m 28.063627,3.2336727 1.406757,-0.250645"
       style="fill:none;stroke:#000000;stroke-width:1;stroke-linecap:round;stroke-miterlimit:4;stroke-dasharray:none" />
    <path
       inkscape:connector-curvature="0"
       id="path36"
       d="m 18.358995,4.9627877 7.407593,2.969644"
       style="fill:none;stroke:#000000;stroke-width:1;stroke-linecap:round;stroke-miterlimit:4;stroke-dasharray:none" />
    <g
       transform="translate(0,-20.657356)"
       id="g1084">
      <path
         style="fill:none;stroke:#ff0000;stroke-width:1;stroke-linecap:round;stroke-miterlimit:4;stroke-dasharray:none;stroke-opacity:1"
         d="m 27.865406,26.214073 -0.107674,0.01402 -0.117753,0.0058 -0.119308,-0.0028 -0.112228,-0.01117 -0.09703,-0.01874 -0.0748,-0.02502 -0.04716,-0.02942 -0.01611,-0.03172"
         id="path38"
         inkscape:connector-curvature="0" />
      <path
         style="fill:none;stroke:#ff0000;stroke-width:1;stroke-linecap:round;stroke-miterlimit:4;stroke-dasharray:none;stroke-opacity:1"
         d="m 28.063627,26.115085 -0.01337,0.02893 -0.0393,0.0272 -0.06288,0.02382 -0.08267,0.01901"
         id="path40"
         inkscape:connector-curvature="0" />
      <path
         style="fill:none;stroke:#ff0000;stroke-width:0.66771138;stroke-linecap:round;stroke-opacity:1"
         d="m 29.100005,15.9853 0.289109,-0.05952 0.256052,-0.0695 0.218213,-0.07818 0.176301,-0.0854 0.131097,-0.09102 0.0478,-0.0471 0.03565,-0.04786 0.02333,-0.04839 0.01091,-0.04871 -0.0016,-0.04879 -0.01404,-0.04865"
         id="path58"
         inkscape:connector-curvature="0" />
      <path
         style="fill:none;stroke:#ff0000;stroke-width:0.66771138;stroke-linecap:round;stroke-opacity:1"
         d="m 24.964127,15.312182 -0.01432,0.05048 -9.03e-4,0.05063 0.01253,0.05052 0.02589,0.05015 0.03912,0.04953 0.05216,0.04867 0.142324,0.09377 0.190501,0.08744 0.234849,0.07936 0.27448,0.0697 0.308594,0.05862 0.336508,0.04637 0.35766,0.03321 0.371624,0.01932 0.378122,0.0051 0.377021,-0.0093 0.368345,-0.02341 0.352266,-0.03708 0.32911,-0.05002"
         id="path60"
         inkscape:connector-curvature="0" />
      <path
         style="fill:none;stroke:#ff0000;stroke-width:1;stroke-linecap:round;stroke-miterlimit:4;stroke-dasharray:none;stroke-opacity:1"
         d="M 27.173345,16.095201 V 26.115085"
         id="path94"
         inkscape:connector-curvature="0" />
      <path
         style="fill:none;stroke:#ff0000;stroke-width:1;stroke-linecap:round;stroke-miterlimit:4;stroke-dasharray:none;stroke-opacity:1"
         d="M 28.063627,16.095201 V 26.115085"
         id="path96"
         inkscape:connector-curvature="0" />
      <path
         style="fill:none;stroke:#ff0000;stroke-width:0.66771138;stroke-linecap:round;stroke-opacity:1"
         d="m 27.618486,8.9571441 2.654359,6.3550379"
         id="path106"
         inkscape:connector-curvature="0" />
      <path
         style="fill:none;stroke:#ff0000;stroke-width:0.66771138;stroke-linecap:round;stroke-opacity:1"
         d="M 27.618486,8.9571441 24.964127,15.312182"
         id="path108"
         inkscape:connector-curvature="0" />
    </g>
    <path
       inkscape:connector-curvature="0"
       id="path1086"
       d="m 27.618486,-11.700212 -2.631162,6.5568177 2.65305,0.785105 2.613853,-0.792347 z"
       style="fill:#ff0000;fill-opacity:1;stroke:none;stroke-width:1px;stroke-linecap:butt;stroke-linejoin:miter;stroke-opacity:1" />
    <path
       inkscape:connector-curvature="0"
       id="path1092"
       d="m 24.959397,37.561908 1.17757,-0.526968 2.868593,-0.01609 1.243994,0.48726 -2.631068,6.556987 z"
       style="fill:#ff0000;fill-opacity:1;stroke:none;stroke-width:1px;stroke-linecap:butt;stroke-linejoin:miter;stroke-opacity:1" />
  </g>
</svg>
