<?xml version="1.0" encoding="UTF-8" standalone="no"?>
<svg
   xmlns:dc="http://purl.org/dc/elements/1.1/"
   xmlns:cc="http://creativecommons.org/ns#"
   xmlns:rdf="http://www.w3.org/1999/02/22-rdf-syntax-ns#"
   xmlns:svg="http://www.w3.org/2000/svg"
   xmlns="http://www.w3.org/2000/svg"
   xmlns:sodipodi="http://sodipodi.sourceforge.net/DTD/sodipodi-0.dtd"
   xmlns:inkscape="http://www.inkscape.org/namespaces/inkscape"
   width="57"
   height="57"
   version="1.1"
   id="svg132"
   sodipodi:docname="rotate_z.svg"
   inkscape:version="0.92.5 (2060ec1f9f, 2020-04-08)"
   inkscape:export-filename="/home/nath/projets/acroyoga/icons/png/rotate_z.png"
   inkscape:export-xdpi="299.45535"
   inkscape:export-ydpi="299.45535">
  <metadata
     id="metadata138">
    <rdf:RDF>
      <cc:Work
         rdf:about="">
        <dc:format>image/svg+xml</dc:format>
        <dc:type
           rdf:resource="http://purl.org/dc/dcmitype/StillImage" />
        <dc:title></dc:title>
      </cc:Work>
    </rdf:RDF>
  </metadata>
  <defs
     id="defs136" />
  <sodipodi:namedview
     pagecolor="#ffffff"
     bordercolor="#666666"
     borderopacity="1"
     objecttolerance="10"
     gridtolerance="10"
     guidetolerance="10"
     inkscape:pageopacity="0"
     inkscape:pageshadow="2"
     inkscape:window-width="1920"
     inkscape:window-height="1015"
     id="namedview134"
     showgrid="false"
     fit-margin-top="0"
     fit-margin-left="0"
     fit-margin-right="0"
     fit-margin-bottom="0"
     inkscape:zoom="8.08"
     inkscape:cx="-1.6248323"
     inkscape:cy="43.133269"
     inkscape:window-x="0"
     inkscape:window-y="0"
     inkscape:window-maximized="1"
     inkscape:current-layer="svg132" />
  <g
     id="g927"
     transform="translate(0.2726567,19.384182)">
    <path
       inkscape:connector-curvature="0"
       id="path1075"
       d="M 10.951403,-3.0068513 V 18.440575 l 7.407592,2.969644 11.088032,-2.133437 0.02336,-21.2937523 -7.407592,-2.969644 z"
       style="fill:#c37dd7;fill-opacity:1;stroke:none;stroke-width:1;stroke-linecap:butt;stroke-linejoin:miter;stroke-miterlimit:4;stroke-dasharray:none;stroke-opacity:1" />
    <circle
       r="6.6173091"
       cy="11.146942"
       cx="27.556366"
       id="path1077"
       style="fill:#7db2d7;fill-opacity:1;stroke:none;stroke-width:1;stroke-linecap:round;stroke-linejoin:bevel;stroke-miterlimit:4;stroke-dasharray:none;stroke-dashoffset:0;stroke-opacity:1" />
    <path
       inkscape:connector-curvature="0"
       id="path1079"
       d="M 22.364101,7.0613377 V 19.712596 l 2.591579,3.501215 13.100348,-0.692628 v -0.889625 l 2.490849,0.44582 7.430822,-2.965496 L 47.936279,6.2360137 36.881826,4.2574557 32.0491,6.1861017 Z"
       style="fill:#f2ee7c;fill-opacity:1;stroke:none;stroke-width:1;stroke-linecap:butt;stroke-linejoin:miter;stroke-miterlimit:4;stroke-dasharray:none;stroke-opacity:1" />
    <path
       inkscape:connector-curvature="0"
       id="path102"
       d="m 49.841264,9.7956117 -0.138065,0.01963 -0.13753,0.0096 -0.136467,-4.48e-4 -0.134874,-0.0105 -0.132763,-0.02052 -0.130137,-0.03045 -0.127007,-0.04027 -0.123389,-0.04993 -0.119289,-0.0594 -0.114735,-0.06864 -0.109732,-0.07761 -0.10431,-0.08629 -0.09848,-0.09463 -0.09227,-0.102604 -0.08571,-0.110182 -0.07881,-0.117336"
       style="fill:none;stroke:#ff0000;stroke-width:1;stroke-linecap:round;stroke-miterlimit:4;stroke-dasharray:none;stroke-opacity:1" />
    <path
       inkscape:connector-curvature="0"
       id="path124"
       d="m 46.137468,5.7370987 3.4757,-1.034635"
       style="fill:none;stroke:#ff0000;stroke-width:1;stroke-linecap:round;stroke-miterlimit:4;stroke-dasharray:none;stroke-opacity:1" />
    <path
       inkscape:connector-curvature="0"
       id="path126"
       d="m 46.137468,5.7370987 0.112571,0.197109"
       style="fill:none;stroke:#ff0000;stroke-width:1;stroke-linecap:round;stroke-miterlimit:4;stroke-dasharray:none;stroke-opacity:1" />
    <path
       inkscape:connector-curvature="0"
       id="path104"
       d="m 47.936284,6.2360137 0.145085,-0.272043 0.16869,-0.255168 0.190031,-0.234875 0.208825,-0.211428 0.224818,-0.185148 0.237794,-0.156382 0.247583,-0.125521 0.254051,-0.09298"
       style="fill:none;stroke:#ff0000;stroke-width:1;stroke-linecap:round;stroke-miterlimit:4;stroke-dasharray:none;stroke-opacity:1" />
    <path
       inkscape:connector-curvature="0"
       id="path1073"
       d="m 46.474782,5.7762887 1.293921,0.324957 0.986688,-1.045771 z"
       style="fill:#ff0000;fill-opacity:1;stroke:none;stroke-width:1;stroke-linecap:butt;stroke-linejoin:miter;stroke-miterlimit:4;stroke-dasharray:none;stroke-opacity:1" />
    <path
       inkscape:connector-curvature="0"
       id="path1071"
       d="M 1.8048128,13.694857 2.9244653,15.800472 4.144385,13.068186 Z"
       style="fill:#ff0000;fill-opacity:1;stroke:none;stroke-width:1;stroke-linecap:butt;stroke-linejoin:miter;stroke-miterlimit:4;stroke-dasharray:none;stroke-opacity:1" />
    <path
       inkscape:connector-curvature="0"
       id="path22"
       d="M 10.951403,18.440575 V 17.214222"
       style="fill:none;stroke:#000000;stroke-width:1;stroke-linecap:round;stroke-miterlimit:4;stroke-dasharray:none" />
    <path
       inkscape:connector-curvature="0"
       id="path24"
       d="M 10.951403,16.303891 V -3.0068513"
       style="fill:none;stroke:#000000;stroke-width:1;stroke-linecap:round;stroke-miterlimit:4;stroke-dasharray:none" />
    <path
       inkscape:connector-curvature="0"
       id="path26"
       d="m 10.951403,-3.0068513 11.111389,-1.979763"
       style="fill:none;stroke:#000000;stroke-width:1;stroke-linecap:round;stroke-miterlimit:4;stroke-dasharray:none" />
    <path
       inkscape:connector-curvature="0"
       id="path28"
       d="M 18.358995,21.410219 V 18.324175"
       style="fill:none;stroke:#000000;stroke-width:1;stroke-linecap:round;stroke-miterlimit:4;stroke-dasharray:none" />
    <path
       inkscape:connector-curvature="0"
       id="path30"
       d="M 18.358995,17.429528 V -0.03720826"
       style="fill:none;stroke:#000000;stroke-width:1;stroke-linecap:round;stroke-miterlimit:4;stroke-dasharray:none" />
    <path
       inkscape:connector-curvature="0"
       id="path32"
       d="M 18.358995,-0.03720826 29.470384,-2.0169703"
       style="fill:none;stroke:#000000;stroke-width:1;stroke-linecap:round;stroke-miterlimit:4;stroke-dasharray:none" />
    <path
       inkscape:connector-curvature="0"
       id="path34"
       d="m 29.470384,4.7662817 v -6.783252"
       style="fill:none;stroke:#000000;stroke-width:1;stroke-linecap:round;stroke-miterlimit:4;stroke-dasharray:none" />
    <path
       inkscape:connector-curvature="0"
       id="path36"
       d="m 18.358995,21.410219 4.648603,-0.828261"
       style="fill:none;stroke:#000000;stroke-width:1;stroke-linecap:round;stroke-miterlimit:4;stroke-dasharray:none" />
    <path
       inkscape:connector-curvature="0"
       id="path38"
       d="m 10.951403,18.440575 7.407592,2.969644"
       style="fill:none;stroke:#000000;stroke-width:1;stroke-linecap:round;stroke-miterlimit:4;stroke-dasharray:none" />
    <path
       inkscape:connector-curvature="0"
       id="path40"
       d="m 10.951403,-3.0068513 7.407592,2.96964304"
       style="fill:none;stroke:#000000;stroke-width:1;stroke-linecap:round;stroke-miterlimit:4;stroke-dasharray:none" />
    <path
       inkscape:connector-curvature="0"
       id="path42"
       d="m 22.062792,-4.9866143 7.407592,2.969644"
       style="fill:none;stroke:#000000;stroke-width:1;stroke-linecap:round;stroke-miterlimit:4;stroke-dasharray:none" />
    <path
       inkscape:connector-curvature="0"
       id="path44"
       d="M 22.364101,19.712596 V 18.625861"
       style="fill:none;stroke:#000000;stroke-width:1;stroke-linecap:round;stroke-miterlimit:4;stroke-dasharray:none" />
    <path
       inkscape:connector-curvature="0"
       id="path46"
       d="M 22.364101,17.734298 V 6.8441397"
       style="fill:none;stroke:#000000;stroke-width:1;stroke-linecap:round;stroke-miterlimit:4;stroke-dasharray:2, 2;stroke-dashoffset:0" />
    <path
       inkscape:connector-curvature="0"
       id="path48"
       d="M 22.364101,6.8441397 35.464449,6.1515117"
       style="fill:none;stroke:#000000;stroke-width:1;stroke-linecap:round;stroke-miterlimit:4;stroke-dasharray:2, 2;stroke-dashoffset:0" />
    <path
       inkscape:connector-curvature="0"
       id="path50"
       d="M 24.95568,23.213811 V 18.729316"
       style="fill:none;stroke:#000000;stroke-width:1;stroke-linecap:round;stroke-miterlimit:4;stroke-dasharray:none" />
    <path
       inkscape:connector-curvature="0"
       id="path52"
       d="m 24.95568,17.838715 v -7.49336"
       style="fill:none;stroke:#000000;stroke-width:1;stroke-linecap:round;stroke-miterlimit:4;stroke-dasharray:2, 2;stroke-dashoffset:0" />
    <path
       inkscape:connector-curvature="0"
       id="path54"
       d="M 24.95568,10.345355 38.056028,9.6527267"
       style="fill:none;stroke:#000000;stroke-width:1;stroke-linecap:round;stroke-miterlimit:4;stroke-dasharray:2, 2;stroke-dashoffset:0" />
    <path
       inkscape:connector-curvature="0"
       id="path56"
       d="M 38.056028,22.521183 V 18.199921"
       style="fill:none;stroke:#000000;stroke-width:1;stroke-linecap:round;stroke-miterlimit:4;stroke-dasharray:2, 2;stroke-dashoffset:0" />
    <path
       inkscape:connector-curvature="0"
       id="path58"
       d="M 38.056028,17.303924 V 9.6527267"
       style="fill:none;stroke:#000000;stroke-width:1;stroke-linecap:round;stroke-miterlimit:4;stroke-dasharray:2, 2;stroke-dashoffset:0" />
    <path
       inkscape:connector-curvature="0"
       id="path60"
       d="M 24.95568,23.213811 38.056028,22.521183"
       style="fill:none;stroke:#000000;stroke-width:1;stroke-linecap:round;stroke-miterlimit:4;stroke-dasharray:2, 2;stroke-dashoffset:0" />
    <path
       inkscape:connector-curvature="0"
       id="path62"
       d="m 22.364101,19.712596 2.591579,3.501215"
       style="fill:none;stroke:#000000;stroke-width:1;stroke-linecap:round;stroke-miterlimit:4;stroke-dasharray:2, 2;stroke-dashoffset:0" />
    <path
       inkscape:connector-curvature="0"
       id="path64"
       d="M 22.364101,6.8441397 24.95568,10.345355"
       style="fill:none;stroke:#000000;stroke-width:1;stroke-linecap:round;stroke-miterlimit:4;stroke-dasharray:2, 2;stroke-dashoffset:0" />
    <path
       inkscape:connector-curvature="0"
       id="path66"
       d="m 35.464449,6.1515117 2.591579,3.501215"
       style="fill:none;stroke:#000000;stroke-width:1;stroke-linecap:round;stroke-miterlimit:4;stroke-dasharray:2, 2;stroke-dashoffset:0" />
    <path
       inkscape:connector-curvature="0"
       id="path68"
       d="m 29.451009,7.2229507 7.430822,-2.965495"
       style="fill:none;stroke:#000000;stroke-width:1;stroke-linecap:round;stroke-miterlimit:4;stroke-dasharray:none" />
    <path
       inkscape:connector-curvature="0"
       id="path70"
       d="M 40.546877,22.077378 V 17.877526"
       style="fill:none;stroke:#000000;stroke-width:1;stroke-linecap:round;stroke-miterlimit:4;stroke-dasharray:none" />
    <path
       inkscape:connector-curvature="0"
       id="path72"
       d="M 40.546877,16.977557 V 9.2089217"
       style="fill:none;stroke:#000000;stroke-width:1;stroke-linecap:round;stroke-miterlimit:4;stroke-dasharray:none" />
    <path
       inkscape:connector-curvature="0"
       id="path74"
       d="m 40.546877,9.2089217 7.430822,-2.965495"
       style="fill:none;stroke:#000000;stroke-width:1;stroke-linecap:round;stroke-miterlimit:4;stroke-dasharray:none" />
    <path
       inkscape:connector-curvature="0"
       id="path76"
       d="M 47.977699,19.111882 V 16.267964"
       style="fill:none;stroke:#000000;stroke-width:1;stroke-linecap:round;stroke-miterlimit:4;stroke-dasharray:none" />
    <path
       inkscape:connector-curvature="0"
       id="path78"
       d="M 47.977699,15.334607 V 6.2434267"
       style="fill:none;stroke:#000000;stroke-width:1;stroke-linecap:round;stroke-miterlimit:4;stroke-dasharray:none" />
    <path
       inkscape:connector-curvature="0"
       id="path80"
       d="m 40.546877,22.077378 7.430822,-2.965496"
       style="fill:none;stroke:#000000;stroke-width:1;stroke-linecap:round;stroke-miterlimit:4;stroke-dasharray:none" />
    <path
       inkscape:connector-curvature="0"
       id="path82"
       d="m 38.056028,21.631558 2.490849,0.44582"
       style="fill:none;stroke:#000000;stroke-width:1;stroke-linecap:round;stroke-miterlimit:4;stroke-dasharray:none" />
    <path
       inkscape:connector-curvature="0"
       id="path84"
       d="m 29.451009,7.2229507 11.095868,1.985971"
       style="fill:none;stroke:#000000;stroke-width:1;stroke-linecap:round;stroke-miterlimit:4;stroke-dasharray:none" />
    <path
       inkscape:connector-curvature="0"
       id="path86"
       d="m 36.881831,4.2574557 11.095868,1.985971"
       style="fill:none;stroke:#000000;stroke-width:1;stroke-linecap:round;stroke-miterlimit:4;stroke-dasharray:none" />
    <path
       inkscape:connector-curvature="0"
       id="path88"
       d="m 5.561347,14.727795 -0.067813,-0.01797 -0.07157,-0.0014 -0.07258,0.01522 -0.0708,0.03126 -0.066299,0.0461 -0.059248,0.05916 -0.049923,0.06995 -0.038683,0.07805 -0.025952,0.08316 -0.012241,0.08507 0.00198,0.08371 0.016114,0.07913 0.029602,0.07151 0.041977,0.06114 0.052718,0.04843 0.061447,0.03385"
       style="fill:none;stroke:#ff0606;stroke-width:1;stroke-linecap:round;stroke-miterlimit:4;stroke-dasharray:none;stroke-opacity:1" />
    <path
       inkscape:connector-curvature="0"
       id="path90"
       d="m 49.470884,7.2879127 0.01193,-0.110034 0.03499,-0.107202 0.05578,-0.09747 0.073,-0.08147 0.08553,-0.06024 0.09255,-0.03512 0.09362,-0.0078 0.08867,0.02012"
       style="fill:none;stroke:#ff0000;stroke-width:1;stroke-linecap:round;stroke-miterlimit:4;stroke-dasharray:none;stroke-opacity:1" />
    <path
       inkscape:connector-curvature="0"
       id="path92"
       d="m 49.675625,7.6350967 -0.08422,-0.05202 -0.0652,-0.07951 -0.04122,-0.10095 -0.01411,-0.114706"
       style="fill:none;stroke:#ff0000;stroke-width:1;stroke-linecap:round;stroke-miterlimit:4;stroke-dasharray:none;stroke-opacity:1" />
    <path
       inkscape:connector-curvature="0"
       id="path94"
       d="m 5.3957078,17.714662 -0.1429748,0.02016 -0.1423827,0.0094 -0.1412032,-0.0014 -0.1394359,-0.01215 -0.1370901,-0.02292 -0.1341744,-0.03352 -0.1307067,-0.04403 -0.126696,-0.05435 -0.12216,-0.06444 -0.1171166,-0.07426 -0.1115879,-0.08378 -0.1056008,-0.09295 -0.099173,-0.101724 -0.092335,-0.110087 -0.085115,-0.117989 -0.077539,-0.125406"
       style="fill:none;stroke:#ff0606;stroke-width:1;stroke-linecap:round;stroke-miterlimit:4;stroke-dasharray:none;stroke-opacity:1" />
    <path
       inkscape:connector-curvature="0"
       id="path96"
       d="m 3.4904175,16.805171 -0.068,-0.128909 -0.060227,-0.134957 -0.05222,-0.140474 -0.044024,-0.145436 -0.035611,-0.149826 -0.027065,-0.153622 -0.028177,-0.316215 0.00677,-0.324001 0.041621,-0.326689 0.075799,-0.324234 0.1087969,-0.316677 0.1400814,-0.304135 0.1691624,-0.286806 0.1955816,-0.264962 0.2189203,-0.238948 0.2388137,-0.209174 0.1257033,-0.09237 0.1292467,-0.08373 0.132278,-0.07476 0.1347932,-0.0655 0.136774,-0.05598 0.1382162,-0.04624"
       style="fill:none;stroke:#ff0606;stroke-width:1;stroke-linecap:round;stroke-miterlimit:4;stroke-dasharray:none;stroke-opacity:1" />
    <path
       inkscape:connector-curvature="0"
       id="path98"
       d="m 5.1676118,12.621514 0.1340053,-0.03516 0.1343524,-0.02582 0.1342055,-0.01639 0.1335646,-0.0069 0.1324383,0.0026 0.1308314,0.01213 0.1287436,0.02159 0.1261841,0.03098 0.1231616,0.04025 0.1196939,0.04937 0.1157857,0.05832 0.1114543,0.06705 0.1067137,0.07554 0.1015856,0.08375 0.096084,0.09165 0.090235,0.09922 0.084052,0.106424 0.077561,0.113242 0.070791,0.119644 0.063762,0.125611 0.1055251,0.26726 0.074953,0.285362 0.043268,0.299294 0.010995,0.308855 -0.021456,0.313903 -0.053613,0.314366"
       style="fill:none;stroke:#ff0606;stroke-width:1;stroke-linecap:round;stroke-miterlimit:4;stroke-dasharray:none;stroke-opacity:1" />
    <path
       inkscape:connector-curvature="0"
       id="path100"
       d="m 7.2337481,16.260045 -0.1652897,0.277252 -0.1900485,0.256583 -0.2119983,0.232114 -0.2308056,0.204213 -0.2461985,0.173289 -0.2579503,0.139797 -0.1321935,0.05667 -0.1336847,0.04756 -0.1346863,0.03828 -0.1351849,0.02884"
       style="fill:none;stroke:#ff0606;stroke-width:1;stroke-linecap:round;stroke-miterlimit:4;stroke-dasharray:none;stroke-opacity:1" />
    <path
       inkscape:connector-curvature="0"
       id="path106"
       d="m 49.613168,4.7024637 0.13968,-0.03646 0.140033,-0.02631 0.139828,-0.01602 0.139066,-0.0057 0.137753,0.0046 0.135897,0.01496 0.133498,0.0252 0.130569,0.03534 0.127119,0.04539 0.123166,0.05523 0.118723,0.06485 0.113814,0.07421 0.10845,0.08329 0.102654,0.09202 0.09645,0.100397 0.08987,0.108374 0.08292,0.115919 0.07565,0.123006 0.06808,0.129602 0.06023,0.135684 0.05215,0.141225 0.04385,0.146207 0.03539,0.150609 0.0268,0.15441 0.01807,0.157602 0.0093,0.160167 -0.0079,0.325476 -0.04296,0.328017 -0.07741,0.325354"
       style="fill:none;stroke:#ff0000;stroke-width:1;stroke-linecap:round;stroke-miterlimit:4;stroke-dasharray:none;stroke-opacity:1" />
    <path
       inkscape:connector-curvature="0"
       id="path108"
       d="m 51.569612,8.5317697 -0.165979,0.242036 -0.185344,0.222804 -0.202405,0.200809 -0.216966,0.176327 -0.228834,0.149659 -0.237865,0.121137 -0.243951,0.09111 -0.247009,0.05996"
       style="fill:none;stroke:#ff0000;stroke-width:1;stroke-linecap:round;stroke-miterlimit:4;stroke-dasharray:none;stroke-opacity:1" />
    <path
       inkscape:connector-curvature="0"
       id="path110"
       d="m 32.049105,6.1861017 -0.371648,-0.306413 -0.392772,-0.278823 -0.41185,-0.249782 -0.428785,-0.219441 -0.443489,-0.187956 -0.455885,-0.155497 -0.46591,-0.122227 -0.473508,-0.08832 -0.478643,-0.05396 -0.481288,-0.01932 -0.481427,0.01545 -0.479062,0.0501 -0.474203,0.08451 -0.466876,0.118478 -0.457121,0.151825 -0.444986,0.184386 -0.430535,0.215987 -0.413845,0.246461 -0.395001,0.275653 -0.3741,0.303413 -0.351253,0.329591 -0.326578,0.354058"
       style="fill:none;stroke:#000000;stroke-width:1;stroke-linecap:round;stroke-miterlimit:4;stroke-dasharray:none" />
    <path
       inkscape:connector-curvature="0"
       id="path112"
       d="m 22.364101,7.0613377 -0.275297,0.377589 -0.248215,0.39592 -0.219918,0.412311 -0.190538,0.426682 -0.160233,0.438964 -0.129135,0.449096 -0.09741,0.4570283 -0.06521,0.462722 -0.03267,0.466149 v 0.467294 l 0.03267,0.466149 0.06521,0.462722 0.09741,0.457028 0.129135,0.449096 0.160233,0.438964 0.190538,0.426683 0.219918,0.412311 0.248215,0.395919 0.275297,0.377589"
       style="fill:none;stroke:#000000;stroke-width:1;stroke-linecap:round;stroke-miterlimit:4;stroke-dasharray:none" />
    <path
       inkscape:connector-curvature="0"
       id="path114"
       d="m 53.8818,11.181446 -0.0062,0.134191 -0.01856,0.135561 -0.03183,0.138283 -0.04612,0.142029 -0.06152,0.14648 -0.07814,0.151309 -0.09608,0.156192 -0.115425,0.160808 -0.118951,0.14629 -0.135599,0.149132 -0.15234,0.151428 -0.169141,0.153212 -0.185953,0.154517 -0.202748,0.15537 -0.219486,0.155805 -0.236129,0.155853 -0.252635,0.155545 -0.268972,0.154913 -0.586085,0.306784 -0.648433,0.301139 -0.708052,0.294023 -0.750264,0.279903 -0.803615,0.270629 -0.854697,0.260438 -0.903438,0.249403 -0.949764,0.237594 -0.993597,0.225085 -1.034864,0.211945 -1.07349,0.198248 -0.927207,0.155172 -0.950788,0.14488 -0.972694,0.134325 -0.9929,0.123527 -1.01138,0.112509 -1.028103,0.101288 -1.043048,0.08989 -1.056183,0.07833 -1.732886,0.101946 -1.754711,0.07083 -1.768629,0.03939 -1.774583,0.0078 -1.395206,-0.01616 -1.390073,-0.0357 -1.381043,-0.05515 -1.368156,-0.07445 -1.351455,-0.09354 -1.330981,-0.112358 -1.306771,-0.130858 -1.278871,-0.148984 -0.813618,-0.106206 -0.79938,-0.113502 L 13.966823,16.865856 13.198782,16.73815 12.447808,16.60357 11.714771,16.462277 11.000643,16.314468 10.306259,16.160334 9.6324763,16.000083 8.9801379,15.833943 8.3500663,15.662154 7.743069,15.484967 7.1599362,15.302649 6.6014401,15.115483 6.0683367,14.923762 5.5613653,14.727796"
       style="fill:none;stroke:#ff0000;stroke-width:1;stroke-linecap:round;stroke-miterlimit:4;stroke-dasharray:none;stroke-opacity:1" />
    <path
       inkscape:connector-curvature="0"
       id="path116"
       d="M 53.8818,11.181446 53.87032,10.998178 53.83489,10.810569 53.77327,10.616065 53.68245,10.413276 53.559293,10.201806 53.400943,9.9820617 53.205081,9.7550577 52.97006,9.5222117 52.694918,9.2851637 52.379336,9.0456107 52.023543,8.8051747 51.628209,8.5653157 51.19433,8.3272987 50.723179,8.0922167 50.216301,7.8610997 49.67562,7.6350967"
       style="fill:none;stroke:#ff0000;stroke-width:1;stroke-linecap:round;stroke-miterlimit:4;stroke-dasharray:none;stroke-opacity:1" />
    <path
       inkscape:connector-curvature="0"
       id="path118"
       d="m 5.2300691,15.554147 0.5171322,0.199997 0.5412887,0.195065 0.5648888,0.189946 0.5879011,0.184645 0.6102962,0.179156 0.6320458,0.173484 0.6531188,0.167636 0.6734853,0.161613 0.689201,0.154571 0.70788,0.148285 0.725789,0.141844 0.74291,0.135252 0.759222,0.128512 0.774702,0.121635 0.789334,0.114628 0.803097,0.107497 1.347902,0.160923 1.378712,0.140865 1.405371,0.120384 1.427821,0.09955 1.446004,0.07842 1.459861,0.05705 1.469334,0.03552 1.474361,0.01389 1.565376,-0.009 1.560805,-0.03339 1.550915,-0.05766 1.535779,-0.08174 1.515469,-0.105561 1.490059,-0.12902 1.459621,-0.152051 1.424226,-0.174566 1.488798,-0.212528 1.436466,-0.237167 1.37858,-0.260902 0.665918,-0.139048 0.64948,-0.144609 1.134553,-0.276152 1.074892,-0.293205 1.0119,-0.30936 0.48136,-0.16046 0.464482,-0.164163 0.447265,-0.167756 0.429716,-0.171236 0.411867,-0.174602 0.393723,-0.177856 0.375298,-0.180998 0.356616,-0.184025 0.337693,-0.18694 0.318542,-0.189742 0.309115,-0.199088 0.288229,-0.201849 0.267151,-0.20449 0.245914,-0.206997 0.224538,-0.209353 0.203064,-0.211542 0.18152,-0.213548 0.15993,-0.215356 0.170769,-0.273388 0.136601,-0.275371 0.102836,-0.276873 0.06938,-0.277922 0.03614,-0.278541 0.003,-0.278755 -0.03005,-0.278591 -0.06319,-0.27807 L 54.590263,10.26075 54.47681,10.011371 54.335638,9.7634927 54.16668,9.5175587 53.969879,9.2739077 53.745225,9.0328087 53.492759,8.7944897 53.212588,8.5591577 52.904884,8.3270137 52.569893,8.0982657 52.207922,7.8731267 51.819332,7.6518157 51.404523,7.4345487 50.963909,7.2215207 50.4979,7.0128867 50.006864,6.8087327"
       style="fill:none;stroke:#ff0000;stroke-width:1;stroke-linecap:round;stroke-miterlimit:4;stroke-dasharray:none;stroke-opacity:1" />
    <path
       inkscape:connector-curvature="0"
       id="path120"
       d="M 1.6919115,13.656149 5.1676118,12.621514"
       style="fill:none;stroke:#ff0606;stroke-width:1;stroke-linecap:round;stroke-miterlimit:4;stroke-dasharray:none;stroke-opacity:1" />
    <path
       inkscape:connector-curvature="0"
       id="path122"
       d="m 1.6919115,13.656149 1.798506,3.149022"
       style="fill:none;stroke:#ff0606;stroke-width:1;stroke-linecap:round;stroke-miterlimit:4;stroke-dasharray:none;stroke-opacity:1" />
  </g>
</svg>
