<?xml version="1.0" encoding="UTF-8" standalone="no"?>
<svg
   xmlns:dc="http://purl.org/dc/elements/1.1/"
   xmlns:cc="http://creativecommons.org/ns#"
   xmlns:rdf="http://www.w3.org/1999/02/22-rdf-syntax-ns#"
   xmlns:svg="http://www.w3.org/2000/svg"
   xmlns="http://www.w3.org/2000/svg"
   xmlns:sodipodi="http://sodipodi.sourceforge.net/DTD/sodipodi-0.dtd"
   xmlns:inkscape="http://www.inkscape.org/namespaces/inkscape"
   width="58"
   height="58"
   version="1.1"
   id="svg124"
   sodipodi:docname="rotate_x.svg"
   inkscape:version="0.92.5 (2060ec1f9f, 2020-04-08)"
   inkscape:export-filename="/home/nath/projets/acroyoga/icons/png/rotate_x.png"
   inkscape:export-xdpi="299.45535"
   inkscape:export-ydpi="299.45535">
  <metadata
     id="metadata130">
    <rdf:RDF>
      <cc:Work
         rdf:about="">
        <dc:format>image/svg+xml</dc:format>
        <dc:type
           rdf:resource="http://purl.org/dc/dcmitype/StillImage" />
        <dc:title></dc:title>
      </cc:Work>
    </rdf:RDF>
  </metadata>
  <defs
     id="defs128" />
  <sodipodi:namedview
     pagecolor="#ffffff"
     bordercolor="#666666"
     borderopacity="1"
     objecttolerance="10"
     gridtolerance="10"
     guidetolerance="10"
     inkscape:pageopacity="0"
     inkscape:pageshadow="2"
     inkscape:window-width="1920"
     inkscape:window-height="1015"
     id="namedview126"
     showgrid="false"
     fit-margin-top="0"
     fit-margin-left="0"
     fit-margin-right="0"
     fit-margin-bottom="0"
     inkscape:zoom="9.5223716"
     inkscape:cx="23.012309"
     inkscape:cy="24.499143"
     inkscape:window-x="0"
     inkscape:window-y="0"
     inkscape:window-maximized="1"
     inkscape:current-layer="svg124" />
  <g
     id="g921"
     transform="translate(-2.6418882,14.35711)">
    <path
       inkscape:connector-curvature="0"
       id="path1074"
       d="m 22.062792,5.0133817 c 2.469197,0.989881 4.938395,1.979763 7.407592,2.969644 0.134959,7.0859433 0.269918,14.1718863 0.404877,21.2578293 -3.838755,0.72312 -7.677511,1.44624 -11.516266,2.16936 -2.469197,-0.989881 -4.938395,-1.979763 -7.407592,-2.969644 0.0029,-7.113666 0.0059,-14.227331 0.0088,-21.3409973 3.700863,-0.695397 7.401726,-1.390795 11.102589,-2.086192 z"
       style="fill:#c37dd7;fill-opacity:1;stroke:#000000;stroke-width:1;stroke-linecap:butt;stroke-linejoin:miter;stroke-miterlimit:4;stroke-dasharray:none;stroke-opacity:1" />
    <path
       inkscape:connector-curvature="0"
       id="path1076"
       d="m 34.559845,21.197518 c 0.152944,4.403176 -4.69145,7.850687 -8.817184,6.417486 -4.230302,-1.100948 -6.248705,-6.700083 -3.605873,-10.21048 2.507802,-3.928357 8.951435,-3.836544 11.344124,0.163505 0.700149,1.072025 1.081096,2.349008 1.078933,3.629489 z"
       style="fill:#7db2d7;fill-opacity:1;stroke:none;stroke-width:1;stroke-linecap:round;stroke-linejoin:bevel;stroke-miterlimit:4;stroke-dasharray:none;stroke-dashoffset:0;stroke-opacity:1" />
    <path
       inkscape:connector-curvature="0"
       id="path1078"
       d="m 28.315562,14.79526 c -0.473702,1.241442 -0.768428,2.620824 -1.354374,3.775758 -0.965924,0.63547 -1.931847,1.270939 -2.89777,1.906409 0.371168,1.128574 0.979833,2.252334 1.203861,3.383891 -0.401287,1.193489 -0.802574,2.386978 -1.203861,3.580467 1.038101,0.484574 2.274011,0.774553 3.188006,1.381217 0.42003,0.920182 0.640889,2.036299 1.185187,2.834233 2.428848,0.973705 4.857696,1.947411 7.286544,2.921116 1.087555,-0.584486 2.1383,-1.441913 3.248998,-1.854795 0.92148,0.261119 1.842961,0.522237 2.764442,0.783356 0.507494,-1.210087 0.850515,-2.546231 1.458707,-3.679139 0.931146,-0.667676 1.862292,-1.335353 2.793438,-2.003029 -0.360943,-1.058632 -0.967133,-2.107591 -1.181258,-3.172013 0.393753,-1.264115 0.787505,-2.52823 1.181258,-3.792345 -1.038101,-0.484574 -2.274011,-0.774553 -3.188006,-1.381217 -0.42003,-0.920182 -0.64089,-2.036299 -1.185188,-2.834233 -2.428848,-0.973705 -4.857695,-1.947411 -7.286543,-2.921116 -1.00224,0.659362 -2.004481,1.318724 -3.006721,1.978086 -1.00224,-0.302215 -2.00448,-0.604431 -3.00672,-0.906646 z"
       style="fill:#f2ee7c;fill-opacity:1;stroke:none;stroke-width:1;stroke-linecap:butt;stroke-linejoin:miter;stroke-miterlimit:4;stroke-dasharray:none;stroke-opacity:1" />
    <path
       inkscape:connector-curvature="0"
       id="path22"
       d="m 10.951403,28.440571 c 0,-6.833572 0,-13.667144 0,-20.5007163"
       style="fill:none;stroke:#000000;stroke-width:1;stroke-linecap:round;stroke-miterlimit:4;stroke-dasharray:none" />
    <path
       inkscape:connector-curvature="0"
       id="path24"
       d="m 11.670805,6.8649657 c 3.463996,-0.617195 6.927991,-1.234389 10.391987,-1.851584"
       style="fill:none;stroke:#000000;stroke-width:1;stroke-linecap:round;stroke-miterlimit:4;stroke-dasharray:none" />
    <path
       inkscape:connector-curvature="0"
       id="path26"
       d="m 18.358995,31.410215 c 0,-7.149142 0,-14.298285 0,-21.4474273"
       style="fill:none;stroke:#000000;stroke-width:1;stroke-linecap:round;stroke-miterlimit:4;stroke-dasharray:none" />
    <path
       inkscape:connector-curvature="0"
       id="path28"
       d="m 18.358995,9.9627877 c 3.703796,-0.659921 7.407593,-1.319841 11.111389,-1.979762"
       style="fill:none;stroke:#000000;stroke-width:1;stroke-linecap:round;stroke-miterlimit:4;stroke-dasharray:none" />
    <path
       inkscape:connector-curvature="0"
       id="path30"
       d="m 29.470384,14.766278 c 0,-2.261084 0,-4.522168 0,-6.7832523"
       style="fill:none;stroke:#000000;stroke-width:1;stroke-linecap:round;stroke-miterlimit:4;stroke-dasharray:none" />
    <path
       inkscape:connector-curvature="0"
       id="path32"
       d="m 18.358995,31.410215 c 3.083697,-0.549435 6.167394,-1.098871 9.251091,-1.648306"
       style="fill:none;stroke:#000000;stroke-width:1;stroke-linecap:round;stroke-miterlimit:4;stroke-dasharray:none" />
    <path
       inkscape:connector-curvature="0"
       id="path34"
       d="m 10.951403,28.440571 c 2.469197,0.989881 4.938395,1.979763 7.407592,2.969644"
       style="fill:none;stroke:#000000;stroke-width:1;stroke-linecap:round;stroke-miterlimit:4;stroke-dasharray:none" />
    <path
       inkscape:connector-curvature="0"
       id="path36"
       d="m 11.445652,7.1912847 c 2.304448,0.923834 4.608895,1.847669 6.913343,2.771503"
       style="fill:none;stroke:#000000;stroke-width:1;stroke-linecap:round;stroke-miterlimit:4;stroke-dasharray:none" />
    <path
       inkscape:connector-curvature="0"
       id="path38"
       d="m 22.062792,5.0133817 c 2.469197,0.989881 4.938395,1.979763 7.407592,2.969644"
       style="fill:none;stroke:#000000;stroke-width:1;stroke-linecap:round;stroke-miterlimit:4;stroke-dasharray:none" />
    <path
       inkscape:connector-curvature="0"
       id="path40"
       d="m 24.063418,27.441785 c 0.415141,-1.234694 0.830283,-2.469387 1.245424,-3.704081"
       style="fill:none;stroke:#000000;stroke-width:1;stroke-linecap:round;stroke-miterlimit:4;stroke-dasharray:none" />
    <path
       inkscape:connector-curvature="0"
       id="path42"
       d="m 27.070138,18.499341 c 0.415141,-1.234694 0.830283,-2.469387 1.245424,-3.704081"
       style="fill:none;stroke:#000000;stroke-width:1;stroke-linecap:round;stroke-miterlimit:4;stroke-dasharray:none" />
    <path
       inkscape:connector-curvature="0"
       id="path44"
       d="m 28.315562,14.79526 c 1.00224,0.302215 2.00448,0.604431 3.00672,0.906646"
       style="fill:none;stroke:#000000;stroke-width:1;stroke-linecap:round;stroke-miterlimit:4;stroke-dasharray:none" />
    <path
       inkscape:connector-curvature="0"
       id="path46"
       d="m 31.47101,30.411429 c 1.417382,-4.215509 2.834763,-8.431017 4.252145,-12.646526"
       style="fill:none;stroke:#000000;stroke-width:1;stroke-linecap:round;stroke-miterlimit:4;stroke-dasharray:none" />
    <path
       inkscape:connector-curvature="0"
       id="path48"
       d="m 35.723155,17.764903 c 3.421862,1.031828 6.843723,2.063655 10.265585,3.095483"
       style="fill:none;stroke:#000000;stroke-width:1;stroke-linecap:round;stroke-miterlimit:4;stroke-dasharray:none" />
    <path
       inkscape:connector-curvature="0"
       id="path50"
       d="m 41.736595,33.506912 c 1.417382,-4.215509 2.834763,-8.431017 4.252145,-12.646526"
       style="fill:none;stroke:#000000;stroke-width:1;stroke-linecap:round;stroke-miterlimit:4;stroke-dasharray:none" />
    <path
       inkscape:connector-curvature="0"
       id="path52"
       d="m 31.47101,30.411429 c 3.421862,1.031828 6.843723,2.063655 10.265585,3.095483"
       style="fill:none;stroke:#000000;stroke-width:1;stroke-linecap:round;stroke-miterlimit:4;stroke-dasharray:none" />
    <path
       inkscape:connector-curvature="0"
       id="path54"
       d="m 24.063418,27.441785 c 2.469197,0.989881 4.938395,1.979763 7.407592,2.969644"
       style="fill:none;stroke:#000000;stroke-width:1;stroke-linecap:round;stroke-miterlimit:4;stroke-dasharray:none" />
    <path
       inkscape:connector-curvature="0"
       id="path56"
       d="m 28.315562,14.79526 c 2.469198,0.989881 4.938395,1.979762 7.407593,2.969643"
       style="fill:none;stroke:#000000;stroke-width:1;stroke-linecap:round;stroke-miterlimit:4;stroke-dasharray:none" />
    <path
       inkscape:connector-curvature="0"
       id="path58"
       d="m 42.847272,19.600997 c 1.047156,0.419796 2.094312,0.839593 3.141468,1.259389"
       style="fill:none;stroke:#000000;stroke-width:1;stroke-linecap:round;stroke-miterlimit:4;stroke-dasharray:none" />
    <path
       inkscape:connector-curvature="0"
       id="path60"
       d="M 28.315562,31.608707 C 27.945337,30.639529 27.575111,29.670352 27.204886,28.701174"
       style="fill:none;stroke:#000000;stroke-width:1;stroke-linecap:round;stroke-miterlimit:4;stroke-dasharray:2, 2;stroke-dashoffset:0" />
    <path
       inkscape:connector-curvature="0"
       id="path62"
       d="M 25.308842,23.737704 C 24.893701,22.650945 24.478559,21.564186 24.063418,20.477427"
       style="fill:none;stroke:#000000;stroke-width:1;stroke-linecap:round;stroke-miterlimit:4;stroke-dasharray:2, 2;stroke-dashoffset:0" />
    <path
       inkscape:connector-curvature="0"
       id="path64"
       d="m 24.063418,20.477427 c 1.00224,-0.659362 2.00448,-1.318724 3.00672,-1.978086"
       style="fill:none;stroke:#000000;stroke-width:1;stroke-linecap:round;stroke-miterlimit:4;stroke-dasharray:2, 2;stroke-dashoffset:0" />
    <path
       inkscape:connector-curvature="0"
       id="path66"
       d="m 31.322282,15.701906 c 1.00224,-0.659362 2.004481,-1.318724 3.006721,-1.978086"
       style="fill:none;stroke:#000000;stroke-width:1;stroke-linecap:round;stroke-miterlimit:4;stroke-dasharray:2, 2;stroke-dashoffset:0" />
    <path
       inkscape:connector-curvature="0"
       id="path68"
       d="M 35.723155,34.578351 C 34.305773,30.867924 32.888392,27.157498 31.47101,23.447071"
       style="fill:none;stroke:#000000;stroke-width:1;stroke-linecap:round;stroke-miterlimit:4;stroke-dasharray:none" />
    <path
       inkscape:connector-curvature="0"
       id="path70"
       d="m 31.47101,23.447071 c 3.421862,-2.251202 6.843723,-4.502405 10.265585,-6.753607"
       style="fill:none;stroke:#000000;stroke-width:1;stroke-linecap:round;stroke-miterlimit:4;stroke-dasharray:none" />
    <path
       inkscape:connector-curvature="0"
       id="path72"
       d="M 45.98874,27.824744 C 44.571358,24.114317 43.153977,20.403891 41.736595,16.693464"
       style="fill:none;stroke:#000000;stroke-width:1;stroke-linecap:round;stroke-miterlimit:4;stroke-dasharray:none" />
    <path
       inkscape:connector-curvature="0"
       id="path74"
       d="m 35.723155,34.578351 c 3.421862,-2.251202 6.843723,-4.502405 10.265585,-6.753607"
       style="fill:none;stroke:#000000;stroke-width:1;stroke-linecap:round;stroke-miterlimit:4;stroke-dasharray:none" />
    <path
       inkscape:connector-curvature="0"
       id="path76"
       d="m 28.315562,31.608707 c 2.469198,0.989881 4.938395,1.979763 7.407593,2.969644"
       style="fill:none;stroke:#000000;stroke-width:1;stroke-linecap:round;stroke-miterlimit:4;stroke-dasharray:2, 2;stroke-dashoffset:0" />
    <path
       inkscape:connector-curvature="0"
       id="path78"
       d="m 24.063418,20.477427 c 2.469197,0.989881 4.938395,1.979763 7.407592,2.969644"
       style="fill:none;stroke:#000000;stroke-width:1;stroke-linecap:round;stroke-miterlimit:4;stroke-dasharray:2, 2;stroke-dashoffset:0" />
    <path
       inkscape:connector-curvature="0"
       id="path80"
       d="m 34.329003,13.72382 c 2.469197,0.989881 4.938395,1.979763 7.407592,2.969644"
       style="fill:none;stroke:#000000;stroke-width:1;stroke-linecap:round;stroke-miterlimit:4;stroke-dasharray:2, 2;stroke-dashoffset:0" />
    <path
       inkscape:connector-curvature="0"
       id="path104"
       d="m 31.379457,15.664292 c -2.934865,-2.109025 -7.447689,-1.214429 -9.346298,1.863262 -2.099121,3.059811 -1.035708,7.591941 2.19999,9.409179"
       style="fill:none;stroke:#000000;stroke-width:1;stroke-linecap:round;stroke-miterlimit:4;stroke-dasharray:none" />
    <g
       transform="translate(4,-15.657356)"
       id="g888">
      <path
         style="fill:none;stroke:#ff0000;stroke-width:0.66799998;stroke-linecap:round;stroke-miterlimit:4;stroke-dasharray:none;stroke-opacity:1"
         d="m 50.286405,32.879273 c -0.199282,0.164123 -0.691033,0.172927 -0.890159,0"
         id="path82"
         inkscape:connector-curvature="0" />
      <path
         style="fill:none;stroke:#ff0e0e;stroke-width:0.66799998;stroke-linecap:round;stroke-miterlimit:4;stroke-dasharray:none;stroke-opacity:1"
         d="m 5.0253283,40.864315 c 0.2418973,0.05518 0.62088,0.116441 0.815512,-0.06606"
         id="path84"
         inkscape:connector-curvature="0" />
      <path
         style="fill:none;stroke:#ff0e0e;stroke-width:0.66799998;stroke-linecap:round;stroke-miterlimit:4;stroke-dasharray:none;stroke-opacity:1"
         d="m 4.9505669,40.798323 c 0.00637,0.01149 0.056204,0.05549 0.074757,0.066"
         id="path86"
         inkscape:connector-curvature="0" />
      <path
         style="fill:none;stroke:#ff0e0e;stroke-width:1;stroke-linecap:round;stroke-miterlimit:4;stroke-dasharray:none;stroke-opacity:1"
         d="m 3.9141894,40.204394 c 0.3450439,-0.06404 0.6950839,-0.08566 1.0445396,-0.11026"
         id="path88"
         inkscape:connector-curvature="0" />
      <path
         style="fill:none;stroke:#ff0e0e;stroke-width:1;stroke-linecap:round;stroke-miterlimit:4;stroke-dasharray:none;stroke-opacity:1"
         d="m 5.8492388,40.094876 c 0.7282147,0.115242 1.7993898,0.0075 2.2169409,0.71538 l -0.016114,0.06726"
         id="path90"
         inkscape:connector-curvature="0" />
      <path
         style="fill:none;stroke:#ff0e0e;stroke-width:0.66799998;stroke-linecap:round;stroke-miterlimit:4;stroke-dasharray:none;stroke-opacity:1"
         d="M 8.0500667,40.877513 C 7.0839671,41.67857 5.6295209,41.492167 4.4426021,41.465153 3.8723407,41.360711 3.1355049,41.361926 2.7413854,40.877513"
         id="path92"
         inkscape:connector-curvature="0" />
      <path
         style="fill:none;stroke:#ff0e0e;stroke-width:1;stroke-linecap:round;stroke-miterlimit:4;stroke-dasharray:none;stroke-opacity:1"
         d="M 2.7413494,40.877513 C 2.706115,40.367558 3.5580058,40.313953 3.914221,40.204403"
         id="path94"
         inkscape:connector-curvature="0" />
      <path
         style="fill:none;stroke:#ff0000;stroke-width:1;stroke-linecap:round;stroke-miterlimit:4;stroke-dasharray:none;stroke-opacity:1"
         d="m 48.359745,32.285344 c 0.340752,-0.05546 0.683398,-0.08902 1.027916,-0.10951"
         id="path96"
         inkscape:connector-curvature="0" />
      <path
         style="fill:none;stroke:#ff0000;stroke-width:1;stroke-linecap:round;stroke-miterlimit:4;stroke-dasharray:none;stroke-opacity:1"
         d="m 50.278189,32.175076 c 0.733612,0.114617 1.810771,0.005 2.233596,0.71581 l -0.01611,0.06754"
         id="path98"
         inkscape:connector-curvature="0" />
      <path
         style="fill:none;stroke:#ff0000;stroke-width:0.66799998;stroke-linecap:round;stroke-miterlimit:4;stroke-dasharray:none;stroke-opacity:1"
         d="m 52.495623,32.958464 c -0.966118,0.801057 -2.420544,0.614607 -3.607468,0.58763 -0.570265,-0.104438 -1.307081,-0.103233 -1.701219,-0.58763"
         id="path100"
         inkscape:connector-curvature="0" />
      <path
         style="fill:none;stroke:#ff0000;stroke-width:1;stroke-linecap:round;stroke-miterlimit:4;stroke-dasharray:none;stroke-opacity:1"
         d="m 47.186905,32.958464 c -0.03532,-0.509956 0.816659,-0.563574 1.172848,-0.67312"
         id="path102"
         inkscape:connector-curvature="0" />
      <path
         style="fill:none;stroke:#ff0000;stroke-width:1;stroke-linecap:round;stroke-miterlimit:4;stroke-dasharray:none;stroke-opacity:1"
         d="m 37.722453,11.635075 c 6.13524,2.413918 10.344149,8.306325 11.788548,14.604721 0.529232,2.170566 0.769277,4.406883 0.775392,6.639477"
         id="path106"
         inkscape:connector-curvature="0" />
      <path
         style="fill:none;stroke:#ff0000;stroke-width:1;stroke-linecap:round;stroke-miterlimit:4;stroke-dasharray:none;stroke-opacity:1"
         d="M 37.722453,11.635075 C 31.62662,9.1446065 24.517242,10.49287 19.125244,14.041469 10.276214,19.778565 4.9837481,30.336907 4.9505787,40.798339"
         id="path108"
         inkscape:connector-curvature="0" />
      <path
         style="fill:none;stroke:#ff0000;stroke-width:1;stroke-linecap:round;stroke-miterlimit:4;stroke-dasharray:none;stroke-opacity:1"
         d="M 49.396123,32.879273 C 49.435737,26.083437 46.885803,18.920639 41.342571,14.708095 36.694115,11.067837 30.19912,10.357804 24.704073,12.314508 16.521876,15.14295 10.445846,22.382363 7.6411507,30.409808 6.47408,33.741298 5.8445058,37.266271 5.8408321,40.798301"
         id="path110"
         inkscape:connector-curvature="0" />
      <path
         style="fill:none;stroke:#ff0e0e;stroke-width:1;stroke-linecap:round;stroke-miterlimit:4;stroke-dasharray:none;stroke-opacity:1"
         d="M 5.3957078,47.23255 C 4.5109217,45.114204 3.6261355,42.995859 2.7413494,40.877513"
         id="path112"
         inkscape:connector-curvature="0" />
      <path
         style="fill:none;stroke:#ff0e0e;stroke-width:1;stroke-linecap:round;stroke-miterlimit:4;stroke-dasharray:none;stroke-opacity:1"
         d="M 5.3957078,47.23255 C 6.2804941,45.114204 7.1652804,42.995859 8.0500667,40.877513"
         id="path114"
         inkscape:connector-curvature="0" />
      <path
         style="fill:none;stroke:#ff0000;stroke-width:1;stroke-linecap:round;stroke-miterlimit:4;stroke-dasharray:none;stroke-opacity:1"
         d="M 49.841264,39.313501 C 48.956478,37.195155 48.071691,35.07681 47.186905,32.958464"
         id="path116"
         inkscape:connector-curvature="0" />
      <path
         style="fill:none;stroke:#ff0000;stroke-width:1;stroke-linecap:round;stroke-miterlimit:4;stroke-dasharray:none;stroke-opacity:1"
         d="m 49.841264,39.313501 c 0.884786,-2.118346 1.769573,-4.236691 2.654359,-6.355037"
         id="path118"
         inkscape:connector-curvature="0" />
      <path
         style="fill:#ff0000;fill-opacity:1;stroke:none;stroke-width:1px;stroke-linecap:butt;stroke-linejoin:miter;stroke-opacity:1"
         d="m 47.467435,33.206414 c 0.791276,2.035696 1.582553,4.071391 2.373829,6.107087 0.872407,-1.998054 1.744813,-3.996109 2.61722,-5.994163 -1.356409,0.163731 -2.721089,0.58123 -4.055905,0.08238 -0.311715,-0.0651 -0.623429,-0.130201 -0.935144,-0.195301 z"
         id="path1057"
         inkscape:connector-curvature="0" />
      <path
         style="fill:#ff0000;fill-opacity:1;stroke:none;stroke-width:1px;stroke-linecap:butt;stroke-linejoin:miter;stroke-opacity:1"
         d="m 3.0218788,41.125463 c 0.7912763,2.035696 1.5825527,4.071391 2.373829,6.107087 0.8724067,-1.998054 1.7448133,-3.996109 2.61722,-5.994163 -1.3564094,0.163731 -2.721089,0.58123 -4.0559049,0.08238 -0.3117147,-0.0651 -0.6234294,-0.130201 -0.9351441,-0.195301 z"
         id="path1057-3"
         inkscape:connector-curvature="0" />
    </g>
  </g>
</svg>
