<?xml version="1.0" encoding="UTF-8" standalone="no"?>
<svg
   xmlns:dc="http://purl.org/dc/elements/1.1/"
   xmlns:cc="http://creativecommons.org/ns#"
   xmlns:rdf="http://www.w3.org/1999/02/22-rdf-syntax-ns#"
   xmlns:svg="http://www.w3.org/2000/svg"
   xmlns="http://www.w3.org/2000/svg"
   xmlns:sodipodi="http://sodipodi.sourceforge.net/DTD/sodipodi-0.dtd"
   xmlns:inkscape="http://www.inkscape.org/namespaces/inkscape"
   width="58"
   height="58"
   version="1.1"
   id="svg122"
   sodipodi:docname="rotate_y.svg"
   inkscape:version="0.92.5 (2060ec1f9f, 2020-04-08)"
   inkscape:export-filename="/home/nath/projets/acroyoga/icons/png/rotate_y.png"
   inkscape:export-xdpi="299.45535"
   inkscape:export-ydpi="299.45535">
  <metadata
     id="metadata128">
    <rdf:RDF>
      <cc:Work
         rdf:about="">
        <dc:format>image/svg+xml</dc:format>
        <dc:type
           rdf:resource="http://purl.org/dc/dcmitype/StillImage" />
        <dc:title></dc:title>
      </cc:Work>
    </rdf:RDF>
  </metadata>
  <defs
     id="defs126" />
  <sodipodi:namedview
     pagecolor="#ffffff"
     bordercolor="#666666"
     borderopacity="1"
     objecttolerance="10"
     gridtolerance="10"
     guidetolerance="10"
     inkscape:pageopacity="0"
     inkscape:pageshadow="2"
     inkscape:window-width="1920"
     inkscape:window-height="1015"
     id="namedview124"
     showgrid="false"
     fit-margin-top="0"
     fit-margin-left="0"
     fit-margin-right="0"
     fit-margin-bottom="0"
     inkscape:zoom="7.48"
     inkscape:cx="9.3962022"
     inkscape:cy="40.427656"
     inkscape:window-x="0"
     inkscape:window-y="0"
     inkscape:window-maximized="1"
     inkscape:current-layer="svg122" />
  <g
     id="g1523"
     transform="translate(1.095725,-7.8400114)">
    <path
       inkscape:connector-curvature="0"
       id="path1055"
       d="m 10.951403,22.650501 c 0,7.149142 0,14.298284 0,21.447426 2.469197,0.989881 4.938395,1.979763 7.407592,2.969644 3.696011,-0.69539 7.392021,-1.390781 11.088032,-2.086171 0.0078,-7.113673 0.01557,-14.227345 0.02336,-21.341018 -2.469197,-0.989881 -4.938395,-1.979763 -7.407592,-2.969644 -3.703797,0.659921 -7.407595,1.319842 -11.111392,1.979763 z"
       style="fill:#c37dd7;fill-opacity:1;stroke:none;stroke-width:1;stroke-linecap:butt;stroke-linejoin:miter;stroke-miterlimit:4;stroke-dasharray:none;stroke-opacity:1" />
    <path
       inkscape:connector-curvature="0"
       id="path1057"
       d="m 34.079143,36.875198 c 0.187011,4.474816 -4.984455,7.896375 -9.030029,5.986108 -4.192312,-1.570801 -5.337499,-7.664933 -1.997111,-10.648308 3.079399,-3.251479 9.13773,-1.928792 10.585452,2.307185 0.291483,0.748591 0.442024,1.551852 0.441688,2.355015 z"
       style="fill:#7db2d7;fill-opacity:1;stroke:none;stroke-width:1;stroke-linecap:round;stroke-linejoin:bevel;stroke-miterlimit:4;stroke-dasharray:none;stroke-dashoffset:0;stroke-opacity:1" />
    <path
       inkscape:connector-curvature="0"
       id="path1059"
       d="m 24.067272,30.225535 c 0.626833,3.055422 1.420001,6.113634 1.943348,9.16732 -0.647783,2.548709 -1.295565,5.097419 -1.943348,7.646128 2.281241,2.556046 4.562482,5.112091 6.843723,7.668137 3.703796,-0.659921 7.407593,-1.319841 11.111389,-1.979762 0.944921,-3.584156 1.889842,-7.168313 2.834763,-10.752469 -0.66816,-0.748649 -1.33632,-1.497297 -2.00448,-2.245946 0.560337,-0.390437 2.114153,-0.206758 1.918446,-1.034101 -0.916243,-4.210007 -1.832486,-8.420014 -2.748729,-12.630021 -3.828078,0.717885 -7.690137,1.29835 -11.496858,2.102603 -2.152751,0.686037 -4.305503,1.372074 -6.458254,2.058111 z"
       style="fill:#f2ee7c;fill-opacity:1;stroke:none;stroke-width:1;stroke-linecap:butt;stroke-linejoin:miter;stroke-miterlimit:4;stroke-dasharray:none;stroke-opacity:1" />
    <path
       inkscape:connector-curvature="0"
       id="path22"
       d="m 10.951403,44.097927 c 0,-7.149142 0,-14.298284 0,-21.447426"
       style="fill:none;stroke:#000000;stroke-width:1;stroke-linecap:round;stroke-miterlimit:4;stroke-dasharray:none" />
    <path
       inkscape:connector-curvature="0"
       id="path24"
       d="m 10.951403,22.650501 c 3.703796,-0.659921 7.407593,-1.319842 11.111389,-1.979763"
       style="fill:none;stroke:#000000;stroke-width:1;stroke-linecap:round;stroke-miterlimit:4;stroke-dasharray:none" />
    <path
       inkscape:connector-curvature="0"
       id="path26"
       d="m 18.358995,47.067571 c 0,-7.149142 0,-14.298285 0,-21.447427"
       style="fill:none;stroke:#000000;stroke-width:1;stroke-linecap:round;stroke-miterlimit:4;stroke-dasharray:none" />
    <path
       inkscape:connector-curvature="0"
       id="path28"
       d="m 18.358995,25.620144 c 3.703796,-0.659921 7.407593,-1.319841 11.111389,-1.979762"
       style="fill:none;stroke:#000000;stroke-width:1;stroke-linecap:round;stroke-miterlimit:4;stroke-dasharray:none" />
    <path
       inkscape:connector-curvature="0"
       id="path30"
       d="m 29.470384,28.503676 c 0,-1.621098 0,-3.242196 0,-4.863294"
       style="fill:none;stroke:#000000;stroke-width:1;stroke-linecap:round;stroke-miterlimit:4;stroke-dasharray:none" />
    <path
       inkscape:connector-curvature="0"
       id="path32"
       d="m 18.358995,47.067571 c 1.993907,-0.355263 3.987815,-0.710526 5.981722,-1.065789"
       style="fill:none;stroke:#000000;stroke-width:1;stroke-linecap:round;stroke-miterlimit:4;stroke-dasharray:none" />
    <path
       inkscape:connector-curvature="0"
       id="path34"
       d="m 10.951403,44.097927 c 2.469197,0.989881 4.938395,1.979763 7.407592,2.969644"
       style="fill:none;stroke:#000000;stroke-width:1;stroke-linecap:round;stroke-miterlimit:4;stroke-dasharray:none" />
    <path
       inkscape:connector-curvature="0"
       id="path36"
       d="m 10.951403,22.650501 c 2.469197,0.989881 4.938395,1.979762 7.407592,2.969643"
       style="fill:none;stroke:#000000;stroke-width:1;stroke-linecap:round;stroke-miterlimit:4;stroke-dasharray:none" />
    <path
       inkscape:connector-curvature="0"
       id="path38"
       d="m 22.062792,20.670738 c 2.469197,0.989881 4.938395,1.979763 7.407592,2.969644"
       style="fill:none;stroke:#000000;stroke-width:1;stroke-linecap:round;stroke-miterlimit:4;stroke-dasharray:none" />
    <path
       inkscape:connector-curvature="0"
       id="path40"
       d="M 26.902035,43.250871 C 25.957114,38.909092 25.012193,34.567314 24.067272,30.225535"
       style="fill:none;stroke:#000000;stroke-width:1;stroke-linecap:round;stroke-miterlimit:4;stroke-dasharray:none" />
    <path
       inkscape:connector-curvature="0"
       id="path42"
       d="M 33.745758,41.06992 C 32.800837,36.728141 31.855916,32.386362 30.910995,28.044583"
       style="fill:none;stroke:#000000;stroke-width:1;stroke-linecap:round;stroke-miterlimit:4;stroke-dasharray:none" />
    <path
       inkscape:connector-curvature="0"
       id="path44"
       d="m 30.910995,28.044583 c 2.747269,-0.489492 5.494539,-0.978985 8.241808,-1.468477"
       style="fill:none;stroke:#000000;stroke-width:1;stroke-linecap:round;stroke-miterlimit:4;stroke-dasharray:none" />
    <path
       inkscape:connector-curvature="0"
       id="path46"
       d="m 40.041813,26.417708 c 0.66019,-0.117629 1.320381,-0.235258 1.980571,-0.352887"
       style="fill:none;stroke:#000000;stroke-width:1;stroke-linecap:round;stroke-miterlimit:4;stroke-dasharray:none" />
    <path
       inkscape:connector-curvature="0"
       id="path48"
       d="M 44.857147,39.090157 C 43.912226,34.748378 42.967305,30.4066 42.022384,26.064821"
       style="fill:none;stroke:#000000;stroke-width:1;stroke-linecap:round;stroke-miterlimit:4;stroke-dasharray:none" />
    <path
       inkscape:connector-curvature="0"
       id="path50"
       d="m 33.745758,41.06992 c 2.710971,-0.483025 5.421941,-0.96605 8.132912,-1.449075"
       style="fill:none;stroke:#000000;stroke-width:1;stroke-linecap:round;stroke-miterlimit:4;stroke-dasharray:none" />
    <path
       inkscape:connector-curvature="0"
       id="path52"
       d="m 42.760148,39.463788 c 0.699,-0.124544 1.397999,-0.249087 2.096999,-0.373631"
       style="fill:none;stroke:#000000;stroke-width:1;stroke-linecap:round;stroke-miterlimit:4;stroke-dasharray:none" />
    <path
       inkscape:connector-curvature="0"
       id="path54"
       d="m 26.902035,43.250871 c 2.281241,-0.726984 4.562482,-1.453967 6.843723,-2.180951"
       style="fill:none;stroke:#000000;stroke-width:1;stroke-linecap:round;stroke-miterlimit:4;stroke-dasharray:none" />
    <path
       inkscape:connector-curvature="0"
       id="path56"
       d="m 24.067272,30.225535 c 2.281241,-0.726984 4.562482,-1.453968 6.843723,-2.180952"
       style="fill:none;stroke:#000000;stroke-width:1;stroke-linecap:round;stroke-miterlimit:4;stroke-dasharray:none" />
    <path
       inkscape:connector-curvature="0"
       id="path58"
       d="m 42.852667,39.728943 c 0.66816,-0.212929 1.33632,-0.425857 2.00448,-0.638786"
       style="fill:none;stroke:#000000;stroke-width:1;stroke-linecap:round;stroke-miterlimit:4;stroke-dasharray:none" />
    <path
       inkscape:connector-curvature="0"
       id="path60"
       d="m 24.067272,47.038983 c 0.944921,-3.584157 1.889842,-7.168313 2.834763,-10.75247"
       style="fill:none;stroke:#000000;stroke-width:1;stroke-linecap:round;stroke-miterlimit:4;stroke-dasharray:2, 2;stroke-dashoffset:0" />
    <path
       inkscape:connector-curvature="0"
       id="path62"
       d="m 30.910995,54.70712 c 0.944921,-3.584156 1.889842,-7.168313 2.834763,-10.752469"
       style="fill:none;stroke:#000000;stroke-width:1;stroke-linecap:round;stroke-miterlimit:4;stroke-dasharray:2, 2;stroke-dashoffset:0" />
    <path
       inkscape:connector-curvature="0"
       id="path64"
       d="m 33.745758,43.954651 c 2.747271,-0.489493 5.494541,-0.978985 8.241812,-1.468478"
       style="fill:none;stroke:#000000;stroke-width:1;stroke-linecap:round;stroke-miterlimit:4;stroke-dasharray:2, 2;stroke-dashoffset:0" />
    <path
       inkscape:connector-curvature="0"
       id="path66"
       d="m 42.876577,42.327775 c 0.66019,-0.117629 1.32038,-0.235257 1.98057,-0.352886"
       style="fill:none;stroke:#000000;stroke-width:1;stroke-linecap:round;stroke-miterlimit:4;stroke-dasharray:2, 2;stroke-dashoffset:0" />
    <path
       inkscape:connector-curvature="0"
       id="path68"
       d="m 42.022384,52.727358 c 0.944921,-3.584156 1.889842,-7.168313 2.834763,-10.752469"
       style="fill:none;stroke:#000000;stroke-width:1;stroke-linecap:round;stroke-miterlimit:4;stroke-dasharray:2, 2;stroke-dashoffset:0" />
    <path
       inkscape:connector-curvature="0"
       id="path70"
       d="m 30.910995,54.70712 c 3.235363,-0.576458 6.470725,-1.152916 9.706088,-1.729374"
       style="fill:none;stroke:#000000;stroke-width:1;stroke-linecap:round;stroke-miterlimit:4;stroke-dasharray:2, 2;stroke-dashoffset:0" />
    <path
       inkscape:connector-curvature="0"
       id="path72"
       d="m 41.595537,52.803411 c 0.142282,-0.02535 0.284564,-0.0507 0.426846,-0.07605"
       style="fill:none;stroke:#000000;stroke-width:1;stroke-linecap:round;stroke-miterlimit:4;stroke-dasharray:none" />
    <path
       inkscape:connector-curvature="0"
       id="path74"
       d="m 24.067272,47.038983 c 2.281241,2.556046 4.562482,5.112091 6.843723,7.668137"
       style="fill:none;stroke:#000000;stroke-width:1;stroke-linecap:round;stroke-miterlimit:4;stroke-dasharray:2, 2;stroke-dashoffset:0" />
    <path
       inkscape:connector-curvature="0"
       id="path76"
       d="m 26.902035,36.286513 c 2.281241,2.556046 4.562482,5.112092 6.843723,7.668138"
       style="fill:none;stroke:#000000;stroke-width:1;stroke-linecap:round;stroke-miterlimit:4;stroke-dasharray:2, 2;stroke-dashoffset:0" />
    <path
       inkscape:connector-curvature="0"
       id="path78"
       d="m 42.852667,39.728943 c 0.66816,0.748649 1.33632,1.497297 2.00448,2.245946"
       style="fill:none;stroke:#000000;stroke-width:1;stroke-linecap:round;stroke-miterlimit:4;stroke-dasharray:2, 2;stroke-dashoffset:0" />
    <path
       inkscape:connector-curvature="0"
       id="path80"
       d="m 27.618486,10.672938 c 0.02837,-0.0012 0.138793,0.0093 0.16564,0.01575"
       style="fill:none;stroke:#ff0000;stroke-width:1;stroke-linecap:round;stroke-miterlimit:4;stroke-dasharray:none;stroke-opacity:1" />
    <path
       inkscape:connector-curvature="0"
       id="path82"
       d="m 27.452847,11.515062 c -0.368135,-0.172307 -0.196233,-0.780376 0.16559,-0.84212"
       style="fill:none;stroke:#ff0000;stroke-width:1;stroke-linecap:round;stroke-miterlimit:4;stroke-dasharray:none;stroke-opacity:1" />
    <path
       inkscape:connector-curvature="0"
       id="path84"
       d="m 27.784125,62.162534 c -0.449453,-0.153253 -0.760763,0.62711 -0.33125,0.82632"
       style="fill:none;stroke:#ff0b0b;stroke-width:1;stroke-linecap:round;stroke-miterlimit:4;stroke-dasharray:none;stroke-opacity:1" />
    <path
       inkscape:connector-curvature="0"
       id="path86"
       d="m 27.618486,13.675578 c -0.75652,0.152967 -1.540462,-0.234179 -1.90528,-0.909425"
       style="fill:none;stroke:#ff0000;stroke-width:1;stroke-linecap:round;stroke-miterlimit:4;stroke-dasharray:none;stroke-opacity:1" />
    <path
       inkscape:connector-curvature="0"
       id="path88"
       d="m 25.713196,12.766087 c -0.824187,-1.497861 0.0481,-3.6702558 1.677226,-4.183656"
       style="fill:none;stroke:#ff0000;stroke-width:1;stroke-linecap:round;stroke-miterlimit:4;stroke-dasharray:none;stroke-opacity:1" />
    <path
       inkscape:connector-curvature="0"
       id="path90"
       d="m 27.39039,8.5824294 c 1.828816,-0.5652236 2.890337,1.5619116 2.301194,3.0770496"
       style="fill:none;stroke:#ff0000;stroke-width:1;stroke-linecap:round;stroke-miterlimit:4;stroke-dasharray:none;stroke-opacity:1" />
    <path
       inkscape:connector-curvature="0"
       id="path92"
       d="m 29.309493,12.470479 c -0.387274,0.592416 -0.983248,1.073426 -1.691007,1.205099"
       style="fill:none;stroke:#ff0000;stroke-width:1;stroke-linecap:round;stroke-miterlimit:4;stroke-dasharray:none;stroke-opacity:1" />
    <path
       inkscape:connector-curvature="0"
       id="path94"
       d="m 27.618486,65.1494 c -0.75653,0.152971 -1.540457,-0.234186 -1.90528,-0.909436"
       style="fill:none;stroke:#ff0b0b;stroke-width:1;stroke-linecap:round;stroke-miterlimit:4;stroke-dasharray:none;stroke-opacity:1" />
    <path
       inkscape:connector-curvature="0"
       id="path96"
       d="m 25.713196,64.239909 c -0.824186,-1.497857 0.0481,-3.670259 1.677226,-4.183649"
       style="fill:none;stroke:#ff0b0b;stroke-width:1;stroke-linecap:round;stroke-miterlimit:4;stroke-dasharray:none;stroke-opacity:1" />
    <path
       inkscape:connector-curvature="0"
       id="path98"
       d="m 27.39039,60.056252 c 1.624852,-0.526835 2.742302,1.224977 2.402609,2.662516"
       style="fill:none;stroke:#ff0b0b;stroke-width:1;stroke-linecap:round;stroke-miterlimit:4;stroke-dasharray:none;stroke-opacity:1" />
    <path
       inkscape:connector-curvature="0"
       id="path100"
       d="m 29.516498,63.5762 c -0.368674,0.759348 -1.045052,1.41758 -1.898012,1.573203"
       style="fill:none;stroke:#ff0b0b;stroke-width:1;stroke-linecap:round;stroke-miterlimit:4;stroke-dasharray:none;stroke-opacity:1" />
    <path
       inkscape:connector-curvature="0"
       id="path102"
       d="m 24.251638,31.072674 c -3.19412,1.757697 -4.309611,6.279299 -2.285295,9.314387 0.737553,1.187349 1.863525,2.120131 3.15728,2.645229"
       style="fill:none;stroke:#000000;stroke-width:1;stroke-linecap:round;stroke-miterlimit:4;stroke-dasharray:none" />
    <path
       inkscape:connector-curvature="0"
       id="path104"
       d="m 32.381542,63.571383 c 4.099417,-0.745629 6.833858,-4.436398 8.295861,-8.091322 2.710919,-6.946907 2.641966,-14.681836 1.301045,-21.924216 -1.403265,-6.99357 -4.081165,-14.00422 -9.049717,-19.257476 -1.471683,-1.503879 -3.182366,-2.816544 -5.144605,-3.609662"
       style="fill:none;stroke:#ff0000;stroke-width:0.89999998;stroke-linecap:round;stroke-miterlimit:4;stroke-dasharray:none;stroke-opacity:1" />
    <path
       inkscape:connector-curvature="0"
       id="path106"
       d="m 32.381542,63.571383 c -1.656438,0.299888 -3.376651,0.04448 -4.928694,-0.582527"
       style="fill:none;stroke:#ff0b0b;stroke-width:0.89999998;stroke-linecap:round;stroke-miterlimit:4;stroke-dasharray:none;stroke-opacity:1" />
    <path
       inkscape:connector-curvature="0"
       id="path108"
       d="m 27.452847,11.515062 c 4.539406,1.953606 7.537353,6.228498 9.738159,10.48392 3.83668,7.807174 5.433445,16.724594 4.544907,25.377997 -0.580643,4.739825 -1.898408,9.761224 -5.42489,13.191548 -2.215819,2.201949 -5.664093,2.85954 -8.526872,1.594079"
       style="fill:none;stroke:#ff0000;stroke-width:0.89999998;stroke-linecap:round;stroke-miterlimit:4;stroke-dasharray:none;stroke-opacity:1" />
    <path
       inkscape:connector-curvature="0"
       id="path110"
       d="m 23.91469,9.6170646 c 1.158567,-0.3448784 2.317133,-0.6897568 3.4757,-1.0346352"
       style="fill:none;stroke:#ff0000;stroke-width:1;stroke-linecap:round;stroke-miterlimit:4;stroke-dasharray:none;stroke-opacity:1" />
    <path
       inkscape:connector-curvature="0"
       id="path112"
       d="m 23.91469,9.6170646 c 0.599502,1.0496744 1.199004,2.0993484 1.798506,3.1490224"
       style="fill:none;stroke:#ff0000;stroke-width:1;stroke-linecap:round;stroke-miterlimit:4;stroke-dasharray:none;stroke-opacity:1" />
    <path
       inkscape:connector-curvature="0"
       id="path114"
       d="m 23.91469,61.090888 c 1.158567,-0.344879 2.317133,-0.689757 3.4757,-1.034636"
       style="fill:none;stroke:#ff0b0b;stroke-width:1;stroke-linecap:round;stroke-miterlimit:4;stroke-dasharray:none;stroke-opacity:1" />
    <path
       inkscape:connector-curvature="0"
       id="path116"
       d="m 23.91469,61.090888 c 0.599502,1.049674 1.199004,2.099347 1.798506,3.149021"
       style="fill:none;stroke:#ff0b0b;stroke-width:1;stroke-linecap:round;stroke-miterlimit:4;stroke-dasharray:none;stroke-opacity:1" />
    <path
       inkscape:connector-curvature="0"
       id="path1051"
       d="m 23.91469,61.090888 c 0.423007,0.567491 0.85468,1.771249 1.272341,1.946261 0.468793,-0.8541 0.937587,-1.708199 1.406381,-2.562299 -0.892907,0.205346 -1.785815,0.410692 -2.678722,0.616038 z"
       style="fill:#ff0000;fill-opacity:1;stroke:none;stroke-width:1;stroke-linecap:butt;stroke-linejoin:miter;stroke-miterlimit:4;stroke-dasharray:none;stroke-opacity:1" />
    <path
       inkscape:connector-curvature="0"
       id="path1053"
       d="m 23.91469,9.6170646 c 0.430106,0.5258864 0.876299,1.7194994 1.296948,1.8528764 0.460591,-0.822971 0.921183,-1.6459425 1.381774,-2.468914 -0.892907,0.2053459 -1.785815,0.4106917 -2.678722,0.6160376 z"
       style="fill:#ff0000;fill-opacity:1;stroke:none;stroke-width:1;stroke-linecap:butt;stroke-linejoin:miter;stroke-miterlimit:4;stroke-dasharray:none;stroke-opacity:1" />
  </g>
</svg>
